<svg xmlns="http://www.w3.org/2000/svg" width="1024" height="1024" viewBox="0 0 1024 1024" role="img" aria-label="Butter Bar logo">
  <defs>
    <linearGradient id="bg" x1="0" y1="0" x2="1" y2="1">
      <stop offset="0%" stop-color="#1D1208"/>
      <stop offset="100%" stop-color="#3A2515"/>
    </linearGradient>
    <linearGradient id="butter" x1="0" y1="0" x2="1" y2="1">
      <stop offset="0%" stop-color="#FFE999"/>
      <stop offset="60%" stop-color="#FFD85A"/>
      <stop offset="100%" stop-color="#F3BE2A"/>
    </linearGradient>
    <linearGradient id="shine" x1="0" y1="0" x2="0" y2="1">
      <stop offset="0%" stop-color="#FFF6C9" stop-opacity="0.95"/>
      <stop offset="100%" stop-color="#FFF6C9" stop-opacity="0"/>
    </linearGradient>
    <filter id="shadow" x="-20%" y="-20%" width="140%" height="140%">
      <feDropShadow dx="0" dy="22" stdDeviation="26" flood-color="#160B03" flood-opacity="0.34"/>
    </filter>
  </defs>

  <!-- Big Sur style icon field -->
  <rect x="74" y="74" width="876" height="876" rx="196" fill="url(#bg)"/>

  <!-- subtle cinema shelf / bar -->
  <rect x="202" y="638" width="620" height="72" rx="36" fill="#6B4528" opacity="0.95"/>
  <rect x="214" y="648" width="596" height="20" rx="10" fill="#8E5E39" opacity="0.65"/>

  <!-- butter pat -->
  <g filter="url(#shadow)">
    <rect x="250" y="290" width="524" height="332" rx="92" fill="url(#butter)"/>
    <path d="M310 334h332c48 0 88 17 112 44 16 18 24 37 24 57v20H250v-39c0-45 20-82 60-108z" fill="url(#shine)" opacity="0.75"/>
  </g>

  <!-- play symbol carved into butter -->
  <path d="M470 386c0-18 20-29 35-18l110 79c13 9 13 28 0 37l-110 79c-15 11-35 0-35-18V386z" fill="#8A5A18" opacity="0.92"/>
  <path d="M483 404c0-9 10-15 17-10l85 61c6 4 6 13 0 17l-85 61c-7 5-17 0-17-10V404z" fill="#A56A20" opacity="0.5"/>

  <!-- tiny perforations hinting at a film strip, but sparse enough for small sizes -->
  <g fill="#C88819" opacity="0.75">
    <rect x="303" y="372" width="18" height="18" rx="5"/>
    <rect x="303" y="522" width="18" height="18" rx="5"/>
    <rect x="703" y="372" width="18" height="18" rx="5"/>
    <rect x="703" y="522" width="18" height="18" rx="5"/>
  </g>

  <!-- wordmark guide not included in icon master -->
</svg>