<svg xmlns="http://www.w3.org/2000/svg" width="1024" height="1024" viewBox="0 0 1024 1024">
  <defs>
    <linearGradient id="bg" x1="0" y1="0" x2="1" y2="1">
      <stop offset="0%" stop-color="#241108"/>
      <stop offset="100%" stop-color="#4a2410"/>
    </linearGradient>
    <linearGradient id="butter" x1="0" y1="0" x2="0" y2="1">
      <stop offset="0%" stop-color="#ffe696"/>
      <stop offset="100%" stop-color="#f2c742"/>
    </linearGradient>
    <linearGradient id="sheen" x1="0" y1="0" x2="1" y2="1">
      <stop offset="0%" stop-color="rgba(255,252,232,0.9)"/>
      <stop offset="100%" stop-color="rgba(255,252,232,0)"/>
    </linearGradient>
    <filter id="blur16"><feGaussianBlur stdDeviation="16"/></filter>
    <filter id="blur6"><feGaussianBlur stdDeviation="6"/></filter>
  </defs>
  <rect x="72" y="72" width="880" height="880" rx="200" fill="url(#bg)"/>
  <ellipse cx="420" cy="190" rx="280" ry="110" fill="rgba(255,255,255,0.14)" filter="url(#blur16)"/>
  <rect x="196" y="640" width="632" height="74" rx="37" fill="#7c4c2c"/>
  <rect x="210" y="650" width="604" height="25" rx="12" fill="rgba(182,124,77,0.42)"/>
  <rect x="242" y="286" width="540" height="332" rx="95" fill="url(#butter)"/>
  <path d="M242 286h540v120c-160 -40 -340 -40 -540 0z" fill="rgba(255,252,232,0.35)"/>
  <rect x="301" y="352" width="420" height="12" rx="6" fill="rgba(255,245,196,0.28)"/>
  <rect x="301" y="381" width="18" height="18" rx="6" fill="rgba(201,143,40,0.7)"/>
  <rect x="711" y="381" width="18" height="18" rx="6" fill="rgba(201,143,40,0.7)"/>
  <rect x="301" y="531" width="18" height="18" rx="6" fill="rgba(201,143,40,0.7)"/>
  <rect x="711" y="531" width="18" height="18" rx="6" fill="rgba(201,143,40,0.7)"/>
  <rect x="458" y="370" width="152" height="226" rx="32" fill="#9e681d"/>
  <path d="M495 375L495 565L650 470Z" fill="#b67823"/>
  <rect x="250" y="286" width="532" height="332" rx="95" fill="none" stroke="rgba(255,255,255,0.15)" stroke-width="3"/>
</svg>